# xmcd
#
# Track frame offsets:
#	150
#	21520
#	36610
#	53429
#	81700
#	105275
#	126944
#	144865
#	166689
#	185499
#	204294
#	222764
#	241659
#	264744
#
# Disc length: 3757 seconds
#
# Revision: 1
# Processed by: cddbd v1.5.2PL0 Copyright (c) Steve Scherf et al.
# Submitted via: audiograbber 1.83.01
#
DISCID=be0eab0e
DTITLE=andrea adams-frey - lebendig
DYEAR=1900
DGENRE=
TTITLE0=lebendig
TTITLE1=Leben
TTITLE2=Tausend Tode
TTITLE3=Brot des Lebens
TTITLE4=GEist der Wahrheit
TTITLE5=Du bist schön
TTITLE6=Maria
TTITLE7=Schöpfungskrone
TTITLE8=Welt in der Welt
TTITLE9=Ich hab ihr gesicht gesehn
TTITLE10=Mann und Frau
TTITLE11=Der Reimzwangblues
TTITLE12=Vater im Himmel
TTITLE13=jhjh
EXTD=
EXTT0=Leben
EXTT1=
EXTT2=
EXTT3=
EXTT4=
EXTT5=
EXTT6=
EXTT7=
EXTT8=
EXTT9=
EXTT10=
EXTT11=
EXTT12=
EXTT13=
PLAYORDER=
